<mxfile host="65bd71144e">
    <diagram id="opozfoIyHETYiZBGlwcz" name="ページ1">
        <mxGraphModel dx="1040" dy="1074" grid="1" gridSize="10" guides="1" tooltips="1" connect="1" arrows="1" fold="1" page="1" pageScale="1" pageWidth="827" pageHeight="1169" math="0" shadow="0">
            <root>
                <mxCell id="0"/>
                <mxCell id="1" parent="0"/>
                <mxCell id="11" value="教師あり学習" style="shape=rect;fontStyle=1;whiteSpace=wrap;align=center;fontSize=18;" vertex="1" parent="1">
                    <mxGeometry x="280" y="320" width="120" height="60" as="geometry"/>
                </mxCell>
                <mxCell id="2" value="&lt;font size=&quot;1&quot; style=&quot;&quot;&gt;&lt;b style=&quot;font-size: 18px;&quot;&gt;機械学習&lt;/b&gt;&lt;/font&gt;" style="rounded=0;whiteSpace=wrap;html=1;" vertex="1" parent="1">
                    <mxGeometry x="40" y="440" width="120" height="60" as="geometry"/>
                </mxCell>
                <mxCell id="6" value="" style="endArrow=none;html=1;exitX=1;exitY=0.5;exitDx=0;exitDy=0;entryX=0;entryY=0.5;entryDx=0;entryDy=0;" edge="1" parent="1" source="2">
                    <mxGeometry width="50" height="50" relative="1" as="geometry">
                        <mxPoint x="390" y="570" as="sourcePoint"/>
                        <mxPoint x="280" y="470" as="targetPoint"/>
                    </mxGeometry>
                </mxCell>
                <mxCell id="7" value="" style="endArrow=none;html=1;exitX=1;exitY=0.5;exitDx=0;exitDy=0;" edge="1" parent="1" source="2" target="11">
                    <mxGeometry width="50" height="50" relative="1" as="geometry">
                        <mxPoint x="170" y="480" as="sourcePoint"/>
                        <mxPoint x="280" y="350" as="targetPoint"/>
                        <Array as="points">
                            <mxPoint x="230" y="470"/>
                            <mxPoint x="230" y="350"/>
                        </Array>
                    </mxGeometry>
                </mxCell>
                <mxCell id="8" value="" style="endArrow=none;html=1;" edge="1" parent="1" source="2">
                    <mxGeometry width="50" height="50" relative="1" as="geometry">
                        <mxPoint x="160" y="470" as="sourcePoint"/>
                        <mxPoint x="280" y="590" as="targetPoint"/>
                        <Array as="points">
                            <mxPoint x="230" y="470"/>
                            <mxPoint x="230" y="590"/>
                        </Array>
                    </mxGeometry>
                </mxCell>
                <mxCell id="10" value="&lt;p style=&quot;margin:0px;margin-top:10px;margin-left:10px;text-align:left;&quot;&gt;&lt;b&gt;予め問題のデータと&lt;/b&gt;&lt;/p&gt;&lt;p style=&quot;margin:0px;margin-top:10px;margin-left:10px;text-align:left;&quot;&gt;&lt;b&gt;答えを与えて学習&lt;/b&gt;&lt;/p&gt;" style="shape=note;html=1;size=15;spacingLeft=5;align=left;html=1;overflow=fill;whiteSpace=wrap;align=center;fontSize=18;" vertex="1" parent="1">
                    <mxGeometry x="420" y="220" width="230" height="80" as="geometry"/>
                </mxCell>
                <mxCell id="12" value="" style="rounded=0;html=1;labelBackgroundColor=none;endArrow=none;dashed=1;fontSize=18;" edge="1" source="10" target="11" parent="1">
                    <mxGeometry relative="1" as="geometry"/>
                </mxCell>
                <mxCell id="13" value="教師なし学習" style="shape=rect;fontStyle=1;whiteSpace=wrap;align=center;fontSize=18;" vertex="1" parent="1">
                    <mxGeometry x="280" y="440" width="120" height="60" as="geometry"/>
                </mxCell>
                <mxCell id="14" value="&lt;p style=&quot;margin:0px;margin-top:10px;margin-left:10px;text-align:left;&quot;&gt;&lt;b&gt;問題のデータのみを&lt;/b&gt;&lt;/p&gt;&lt;p style=&quot;margin:0px;margin-top:10px;margin-left:10px;text-align:left;&quot;&gt;&lt;b&gt;与えて学習&lt;/b&gt;&lt;/p&gt;" style="shape=note;html=1;size=15;spacingLeft=5;align=left;html=1;overflow=fill;whiteSpace=wrap;align=center;fontSize=18;" vertex="1" parent="1">
                    <mxGeometry x="420" y="340" width="230" height="80" as="geometry"/>
                </mxCell>
                <mxCell id="15" value="" style="rounded=0;html=1;labelBackgroundColor=none;endArrow=none;dashed=1;fontSize=18;" edge="1" parent="1" source="14" target="13">
                    <mxGeometry relative="1" as="geometry"/>
                </mxCell>
                <mxCell id="16" value="強化学習" style="shape=rect;fontStyle=1;whiteSpace=wrap;align=center;fontSize=18;" vertex="1" parent="1">
                    <mxGeometry x="280" y="560" width="120" height="60" as="geometry"/>
                </mxCell>
                <mxCell id="17" value="&lt;p style=&quot;margin:0px;margin-top:10px;margin-left:10px;text-align:left;&quot;&gt;&lt;b&gt;一定環境下で&lt;/b&gt;&lt;/p&gt;&lt;p style=&quot;margin:0px;margin-top:10px;margin-left:10px;text-align:left;&quot;&gt;&lt;b&gt;試行錯誤を行って学習&lt;/b&gt;&lt;/p&gt;" style="shape=note;html=1;size=15;spacingLeft=5;align=left;html=1;overflow=fill;whiteSpace=wrap;align=center;fontSize=18;" vertex="1" parent="1">
                    <mxGeometry x="420" y="460" width="230" height="80" as="geometry"/>
                </mxCell>
                <mxCell id="18" value="" style="rounded=0;html=1;labelBackgroundColor=none;endArrow=none;dashed=1;fontSize=18;" edge="1" parent="1" source="17" target="16">
                    <mxGeometry relative="1" as="geometry"/>
                </mxCell>
            </root>
        </mxGraphModel>
    </diagram>
</mxfile>